<?xml version="1.0" encoding="UTF-8" standalone="no"?>
<svg
   viewBox="0 0 106 106"
   version="1.1"
   id="svg73"
   sodipodi:docname="icon.svg"
   inkscape:version="1.2.1 (9c6d41e, 2022-07-14)"
   xmlns:inkscape="http://www.inkscape.org/namespaces/inkscape"
   xmlns:sodipodi="http://sodipodi.sourceforge.net/DTD/sodipodi-0.dtd"
   xmlns:xlink="http://www.w3.org/1999/xlink"
   xmlns="http://www.w3.org/2000/svg"
   xmlns:svg="http://www.w3.org/2000/svg">
  <sodipodi:namedview
     id="namedview75"
     pagecolor="#ffffff"
     bordercolor="#000000"
     borderopacity="0.25"
     inkscape:showpageshadow="2"
     inkscape:pageopacity="0.0"
     inkscape:pagecheckerboard="0"
     inkscape:deskcolor="#d1d1d1"
     showgrid="false"
     inkscape:zoom="2.3026062"
     inkscape:cx="13.897296"
     inkscape:cy="55.589184"
     inkscape:window-width="1440"
     inkscape:window-height="696"
     inkscape:window-x="0"
     inkscape:window-y="25"
     inkscape:window-maximized="0"
     inkscape:current-layer="g71" />
  <defs
     id="defs61">
    <mask
       id="a"
       x="0"
       y="0"
       width="106"
       height="106"
       maskUnits="userSpaceOnUse">
      <path
         d="M6.06,0H98.43C104.49,0,106,1.51,106,7.57V98.43c0,6.06-1.51,7.57-7.57,7.57H6.06C1.51,106,0,104.49,0,98.43V7.57C0,1.51,1.51,0,6.06,0Z"
         style="fill: #fff;fill-rule: evenodd"
         id="path2" />
    </mask>
    <mask
       id="b"
       x="4.8"
       y="6.07"
       width="50.4"
       height="33.8"
       maskUnits="userSpaceOnUse">
      <rect
         x="6.29"
         y="7.65"
         width="48.45"
         height="31.57"
         rx="1"
         style="fill: #fff"
         id="rect5" />
    </mask>
    <symbol
       id="c"
       data-name="account icon"
       viewBox="0 0 106 106">
      <g
         style="mask: url(#a)"
         mask="url(#a)"
         id="g58">
        <g
           id="g56">
          <path
             d="M0,0H106V106H0Z"
             style="fill: #5a5a64;fill-rule: evenodd"
             id="path8" />
          <path
             d="M6.06,1.51H98.43q6.06,0,7.57,3V0H0V4.54Q1.52,1.51,6.06,1.51Z"
             style="fill: #fff;fill-opacity: 0.382999986410141;fill-rule: evenodd"
             id="path10" />
          <path
             d="M6.06,104.49H98.43q6.06,0,7.57-4.55V106H0V99.94Q1.52,104.49,6.06,104.49Z"
             style="fill-opacity: 0.382999986410141;fill-rule: evenodd"
             id="path12" />
          <g
             id="g54">
            <path
               d="M70.38,104.49H6.06C3,104.49,0,103,0,98.43V61.28L28.77,19.69H59.06a77.33,77.33,0,0,0,21.2,13.87c.07,11.31.07,4.86,0,16.17h3.12l.21,36.82Z"
               style="fill: #393939;fill-rule: evenodd;opacity: 0.324000000953674;isolation: isolate"
               id="path14" />
            <g
               style="opacity: 0.30000000000000004"
               id="g34">
              <g
                 id="g30">
                <path
                   d="M68.77,58.54H76c.76,0,1,.12,1,.46v2.45c0,.31-.24.43-.93.43H61.44c-.66,0-.92-.12-.92-.42,0-.83,0-1.67,0-2.51,0-.29.26-.4.92-.41Z"
                   id="path16" />
                <path
                   d="M64.33,77.42c.42.39.76.66,1,1a.89.89,0,0,1,0,1.31.92.92,0,0,1-1.32,0,4.25,4.25,0,0,1-.48-.47c-.14-.15-.26-.31-.49-.6-.32.37-.54.66-.79.91-.53.53-1.08.58-1.5.15s-.36-.94.15-1.45c.26-.26.54-.5.91-.83-.38-.34-.72-.61-1-.91a.9.9,0,0,1,0-1.36.91.91,0,0,1,1.36,0c.29.28.54.6.93,1A12.1,12.1,0,0,1,64,75.18a.91.91,0,0,1,1.36,0,.87.87,0,0,1,0,1.31C65.07,76.79,64.73,77.06,64.33,77.42Z"
                   id="path18" />
                <path
                   d="M62.13,66.9c0-.47,0-.88,0-1.28a.92.92,0,0,1,.92-1,.91.91,0,0,1,1,1c0,.41,0,.81,0,1.3h1.14a1.16,1.16,0,0,1,1.22,1c0,.55-.42.85-1.18.86H64.12c0,.49,0,.91,0,1.34a.94.94,0,1,1-1.88,0c0-.41,0-.81,0-1.3H60.92a.94.94,0,1,1,0-1.88C61.3,66.89,61.68,66.9,62.13,66.9Z"
                   id="path20" />
                <path
                   d="M74.31,76H72.23c-.67,0-1-.34-1-.93a.89.89,0,0,1,1-1q2.18,0,4.35,0a1,1,0,1,1,0,1.91c-.74,0-1.47,0-2.21,0Z"
                   id="path22" />
                <path
                   d="M74.28,68.61c-.71,0-1.43,0-2.14,0a.86.86,0,0,1-1-.9.85.85,0,0,1,.92-1c1.5,0,3,0,4.48,0a.93.93,0,0,1,1,1,.91.91,0,0,1-1,.91c-.75,0-1.51,0-2.27,0Z"
                   id="path24" />
                <path
                   d="M74.36,78.09c.72,0,1.44,0,2.15,0a1,1,0,0,1,1,1c0,.57-.38.93-1,.94H72.28c-.75,0-1.09-.32-1.09-.94s.37-1,1.09-1,1.39,0,2.08,0Z"
                   id="path26" />
                <path
                   d="M81.29,90.55H56.14a4,4,0,0,1-4-4V53.73a4,4,0,0,1,4-4H81.29a4,4,0,0,1,4,4V86.55A4,4,0,0,1,81.29,90.55ZM56.14,53.73V86.55H81.29V53.73Z"
                   id="path28" />
              </g>
              <path
                 d="M43.49,83.26H31.8V25.71H56v10.6q0,4.55,4.54,4.55H75.71v5.78h4.55V34.8c-4.55-3-16.66-12.11-19.69-13.63H30.29a2.68,2.68,0,0,0-3,3V84.77a2.68,2.68,0,0,0,3,3H48.45V83.26ZM60.57,25.71l15.14,10.6H60.57Z"
                 id="path32" />
            </g>
            <path
               d="M60.57,18.68H30.29a2.68,2.68,0,0,0-3,3V82.28a2.68,2.68,0,0,0,3,3H48.45V80.77H31.8V23.22H56v10.6q0,4.55,4.54,4.55H75.71v5.78h4.55V32.31C75.71,29.28,63.6,20.2,60.57,18.68Zm0,15.14V23.22l15.14,10.6Z"
               style="fill: #a8a9ab"
               id="path36" />
            <g
               id="g52">
              <path
                 d="M68.77,55.78H76c.76,0,1,.13,1,.53v2.85c0,.37-.24.5-.93.5q-7.3,0-14.61,0c-.66,0-.92-.14-.92-.48,0-1,0-2,0-2.93,0-.34.26-.47.92-.47Z"
                 style="fill: #a8a9ab"
                 id="path38" />
              <path
                 d="M64.33,76.53c.42.38.76.65,1,1a.89.89,0,0,1,0,1.31.92.92,0,0,1-1.32,0,5.44,5.44,0,0,1-.48-.48c-.14-.14-.26-.31-.49-.59-.32.36-.54.65-.79.91-.53.53-1.08.57-1.5.14s-.36-.94.15-1.45c.26-.26.54-.49.91-.82-.38-.35-.72-.61-1-.92a.9.9,0,0,1,0-1.36.92.92,0,0,1,1.36,0c.29.28.54.61.93,1A13.78,13.78,0,0,1,64,74.28a.91.91,0,0,1,1.36,0,.88.88,0,0,1,0,1.32C65.07,75.89,64.73,76.16,64.33,76.53Z"
                 style="fill: #a8a9ab"
                 id="path40" />
              <path
                 d="M62.13,65.88c0-.48,0-.88,0-1.29a1,1,0,1,1,1.91,0c0,.4,0,.81,0,1.3h1.14a1.15,1.15,0,0,1,1.22,1c0,.54-.42.85-1.18.85H64.12c0,.49,0,.92,0,1.34a.94.94,0,1,1-1.88,0c0-.4,0-.81,0-1.3H60.92a.94.94,0,1,1,0-1.88Z"
                 style="fill: #a8a9ab"
                 id="path42" />
              <path
                 d="M74.31,75.11c-.69,0-1.38,0-2.08,0s-1-.35-1-.94a.89.89,0,0,1,1-1q2.18,0,4.35,0a.91.91,0,0,1,1,1,.93.93,0,0,1-1,1c-.74,0-1.47,0-2.21,0Z"
                 style="fill: #a8a9ab"
                 id="path44" />
              <path
                 d="M74.28,67.76H72.14a.87.87,0,0,1-1-.9.84.84,0,0,1,.92-1c1.5,0,3,0,4.48,0a.94.94,0,0,1,1,1,.91.91,0,0,1-1,.91H74.28Z"
                 style="fill: #a8a9ab"
                 id="path46" />
              <path
                 d="M74.36,77.2c.72,0,1.44,0,2.15,0a1,1,0,0,1,1,1c0,.56-.38.93-1,.93q-2.12,0-4.23,0c-.75,0-1.09-.32-1.09-.94s.37-.94,1.09-1,1.39,0,2.08,0Z"
                 style="fill: #a8a9ab"
                 id="path48" />
              <path
                 d="M81.29,88.06H56.14a4,4,0,0,1-4-4V51.24a4,4,0,0,1,4-4H81.29a4,4,0,0,1,4,4V84.06A4,4,0,0,1,81.29,88.06ZM56.14,51.24V84.06H81.29V51.24Z"
                 style="fill: #a8a9ab"
                 id="path50" />
            </g>
          </g>
        </g>
      </g>
    </symbol>
    <mask
       id="b-7"
       x="4.8"
       y="6.07"
       width="50.4"
       height="33.8"
       maskUnits="userSpaceOnUse">
      <rect
         x="6.29"
         y="7.6500001"
         width="48.450001"
         height="31.57"
         rx="1"
         style="fill:#ffffff"
         id="rect5-9" />
    </mask>
  </defs>
  <g
     id="g71">
    <use
       width="106"
       height="106"
       transform="translate(-0.07 0)"
       xlink:href="#c"
       id="use63" />
    <rect
       x="6.2"
       y="10.57"
       width="48.45"
       height="31.57"
       rx="1"
       style="fill: #393939;opacity: 0.44;isolation: isolate"
       id="rect65" />
    <g
       id="g492"
       transform="translate(-115.99101,-12.095896)">
      <rect
         width="47"
         height="30.389606"
         fill="#009900"
         id="rect270"
         x="122.27521"
         y="22.73525"
         style="stroke-width:0.0340443" />
      <rect
         width="47"
         height="20.582184"
         fill="#cc0000"
         id="rect272"
         x="122.27521"
         y="22.73525"
         style="stroke-width:0.0340443" />
      <rect
         width="6.7532449"
         height="30.389603"
         fill="#ffffff"
         id="rect274"
         x="122.27521"
         y="22.73525"
         style="stroke-width:0.0340443" />
      <g
         fill="#cc0000"
         transform="matrix(0.14896864,0,0,0.07002213,123.11936,22.735245)"
         id="g296">
        <g
           id="h">
          <g
             id="q">
            <path
               d="M 0,8 H 2 V 20 H 0 Z M 0,66 H 2 V 78 H 0 Z m 0,52 h 2 v 12 H 0 Z m 0,50 h 2 v 8 H 0 Z m 1,50 1,-1 v -6 H 0 v 6 z"
               id="path276" />
            <path
               d="M 8,0 V 10 H 6 V 20 H 4 V 30 H 2 V 40 H 0 v 10 h 2 v 10 h 2 v 10 h 2 v 10 h 2 v 10 h 2 V 80 h 2 V 70 h 2 V 60 h 2 V 50 h 3 V 40 H 16 V 30 H 14 V 20 H 12 V 10 H 10 V 0 Z m 2,20 v 10 h 2 v 10 h 2 V 50 H 12 V 60 H 10 V 70 H 8 V 60 H 6 V 50 H 4 V 40 H 6 V 30 H 8 V 20 Z M 8,40 v 10 h 2 V 40 Z"
               id="path278" />
            <path
               d="m 0,94 h 1 v -6 h 1 v -6 h 3 v 6 h 1 v 6 h 1 v 8 H 6 v 6 H 5 v 6 H 2 v -6 H 1 v -6 H 0 Z m 3,-2 v 4 H 2 v 4 h 1 v 4 h 1 v -4 H 5 V 96 H 4 v -4 z"
               id="path280" />
            <path
               d="m 11,94 h 1 v -6 h 1 v -6 h 3 v 6 h 2 v 20 h -2 v 6 h -3 v -6 h -1 v -6 h -1 z m 3,-2 v 4 h -1 v 4 h 1 v 4 h 1 v -4 h 1 v -4 h -1 v -4 z"
               id="path282" />
            <path
               d="m 0,180 h 2 v 6 h 2 v 6 h 2 v 10 h 2 v -10 h 2 v -6 h 2 v -8 h 3 v -10 h -1 v -16 h -2 v -8 h -2 v 12 h 2 v 10 h -2 v 10 H 8 v 10 H 6 V 176 H 4 V 166 H 2 V 156 H 0 v -10 h 2 v -10 h 2 v -10 h 2 v -10 h 2 v -10 h 2 v 10 h 2 v 10 h 2 v 10 h 2 v 10 h 2 v 38 h -2 v 4.5 h -1 v 9.5 h -3 v 8 h -2 v 7 H 8 v 8 H 6 v -8 H 4 v -7 H 2 v -8 H 0 Z"
               id="path284" />
            <path
               d="m 13,204 h 2 v 4 h 1 v 3 h 2 v 10 h -3 v -8 h -1 v -3 h -1 z m -1,14 1,-1 v -6 h -2 v 6 z"
               id="path286" />
          </g>
          <use
             xlink:href="#q"
             transform="matrix(-1,0,0,1,34,0)"
             id="use289" />
          <path
             d="m 16,8 h 2 v 12 h -2 z m 0,58 h 2 v 12 h -2 z m 0,52 h 2 v 12 h -2 z m 0,78 h 2 v 10 h -2 z"
             id="path291" />
        </g>
        <use
           xlink:href="#h"
           transform="matrix(1,0,0,-1,0,434)"
           id="use294" />
      </g>
    </g>
  </g>
</svg>
